
<svg width="103px" height="100px" viewBox="0 0 103 100" version="1.1" xmlns="http://www.w3.org/2000/svg" xmlns:xlink="http://www.w3.org/1999/xlink">
    <g id="页面-1" stroke="none" stroke-width="1" fill="none" fill-rule="evenodd">
        <g id="编组" transform="translate(-7.000000, -33.000000)" fill="#59F165" stroke="#B4FDAE" stroke-width="10">
            <path d="M53.070034,40.1402398 C55.7126053,38.7505903 58.8853099,38.3690478 61.9617906,39.3249949 C65.62947,40.4646437 68.5012734,43.336447 69.6409221,47.0041264 L69.6409221,47.0041264 L74.2351349,61.7894707 C74.432201,62.4236795 74.8260561,62.955348 75.336661,63.3263242 C75.8472659,63.6973004 76.4746206,63.9075843 77.1386858,63.899024 L77.1386858,63.899024 L92.6200737,63.6994573 C95.8413846,63.6579321 98.7745656,64.9260324 100.9128,67.0098417 C103.051035,69.093651 104.394323,71.9931693 104.435848,75.2144802 C104.485353,79.0548215 102.641542,82.6735048 99.5055422,84.8907505 L99.5055422,84.8907505 L86.863534,93.8290291 C86.3212623,94.2124314 85.9373235,94.7513044 85.7422898,95.3515565 C85.5472561,95.9518086 85.5411274,96.6134397 85.7544762,97.2423579 L85.7544762,97.2423579 L90.7282874,111.904363 C91.7632199,114.95518 91.4635877,118.136665 90.1425181,120.81418 C88.8214485,123.491694 86.4789416,125.665238 83.4281248,126.70017 C79.7910411,127.933983 75.7796997,127.298649 72.7018967,125.001303 L72.7018967,125.001303 L60.2944932,115.740118 C59.7622848,115.342865 59.1311424,115.144239 58.5,115.144239 C57.8688576,115.144239 57.2377152,115.342865 56.7055068,115.740118 L56.7055068,115.740118 L44.2981033,125.001303 C41.7164159,126.928336 38.5980519,127.626502 35.6433514,127.197488 C32.6886509,126.768473 29.8976139,125.212279 27.9705803,122.630591 C25.6732341,119.552788 25.0379,115.541447 26.2717126,111.904363 L26.2717126,111.904363 L31.2455238,97.2423579 C31.4588726,96.6134397 31.4527439,95.9518086 31.2577102,95.3515565 C31.0626765,94.7513044 30.6787377,94.2124314 30.136466,93.8290291 L30.136466,93.8290291 L17.4944578,84.8907505 C14.8639547,83.0309059 13.236332,80.2809107 12.7312962,77.3382508 C12.2262605,74.3955909 12.8438116,71.2602663 14.7036561,68.6297632 C16.9209018,65.4937636 20.5395851,63.6499524 24.3799263,63.6994573 L24.3799263,63.6994573 L39.8613142,63.899024 C40.5253794,63.9075843 41.1527341,63.6973004 41.663339,63.3263242 C42.1739439,62.955348 42.567799,62.4236795 42.7648651,61.7894707 L42.7648651,61.7894707 L47.3590779,47.0041264 C48.3150249,43.9276457 50.4274628,41.5298893 53.070034,40.1402398 Z" id="星形"></path>
        </g>
    </g>
</svg>